<?xml version="1.0" standalone="no"?>
<!DOCTYPE svg PUBLIC "-//W3C//DTD SVG 20010904//EN"
 "http://www.w3.org/TR/2001/REC-SVG-20010904/DTD/svg10.dtd">
<svg version="1.0" xmlns="http://www.w3.org/2000/svg"
 width="700.000000pt" height="579.000000pt" viewBox="0 0 700.000000 579.000000"
 preserveAspectRatio="xMidYMid meet">

<g transform="translate(0.000000,579.000000) scale(0.100000,-0.100000)"
fill="#000000" stroke="none">
<path d="M725 5458 c-24 -14 -50 -42 -65 -68 -24 -43 -25 -53 -26 -220 -1
-153 -16 -301 -40 -395 -5 -20 -5 -21 135 -6 111 12 142 18 145 30 3 9 15 64
27 124 12 59 26 106 30 105 4 -2 48 -40 98 -86 l89 -82 21 26 c11 14 25 41 32
61 11 35 11 37 -30 70 -30 25 -41 42 -41 62 0 57 41 66 90 21 18 -17 33 -29
34 -28 0 2 11 23 24 48 38 76 47 83 97 84 25 1 45 4 45 8 0 11 -47 21 -60 13
-6 -3 -1 12 11 35 30 57 23 134 -15 167 -66 56 -256 71 -342 26 l-40 -21 -29
21 c-44 33 -138 35 -190 5z"/>
<path d="M5729 5391 c-33 -33 -35 -50 -15 -90 19 -35 57 -60 124 -81 l53 -17
-40 -12 c-44 -13 -68 -39 -102 -108 -34 -69 -99 -133 -136 -133 -17 0 -36 7
-43 15 -18 22 -25 19 -77 -27 -86 -80 -123 -123 -139 -166 -15 -36 -15 -49 -4
-85 26 -89 79 -130 165 -130 108 0 200 68 256 187 27 58 79 224 79 252 0 20
41 44 77 44 61 0 51 -67 -17 -106 -27 -16 -30 -23 -30 -66 0 -48 0 -48 28 -42
93 23 96 25 121 99 14 42 25 105 28 156 7 103 -9 144 -66 182 -21 14 -65 50
-97 80 -95 87 -119 94 -165 48z"/>
<path d="M3900 5345 c-8 -9 -9 -15 -2 -15 6 0 14 5 17 10 4 6 15 8 26 5 11 -4
19 -2 19 4 0 16 -46 13 -60 -4z"/>
<path d="M4054 5349 c-5 -9 0 -10 20 -5 14 3 36 1 47 -5 17 -9 20 -8 17 3 -6
17 -74 23 -84 7z"/>
<path d="M3905 5280 c-8 -13 3 -30 20 -30 14 0 27 24 18 34 -10 9 -31 7 -38
-4z"/>
<path d="M4075 5280 c-4 -7 -3 -16 3 -22 14 -14 45 -2 40 15 -6 16 -34 21 -43
7z"/>
<path d="M3976 5228 c-8 -18 -17 -52 -21 -75 l-7 -43 36 0 36 0 0 53 c0 96
-20 125 -44 65z"/>
<path d="M5675 5190 c-3 -5 3 -10 14 -10 11 0 29 -10 41 -22 16 -18 20 -19 20
-5 0 30 -61 60 -75 37z"/>
<path d="M4232 5158 c-19 -16 -32 -31 -30 -33 1 -2 18 10 36 27 19 16 32 31
30 33 -1 2 -18 -10 -36 -27z"/>
<path d="M1334 5155 c-4 -9 -2 -21 4 -27 15 -15 44 -1 40 19 -4 23 -36 29 -44
8z"/>
<path d="M5667 5133 c-4 -3 -7 -15 -7 -25 0 -21 36 -25 43 -5 9 27 -17 50 -36
30z"/>
<path d="M1157 5059 c18 -18 35 -30 38 -27 3 3 -11 18 -32 33 l-38 28 32 -34z"/>
<path d="M3973 5043 c15 -2 37 -2 50 0 12 2 0 4 -28 4 -27 0 -38 -2 -22 -4z"/>
<path d="M5888 4984 c-39 -21 -35 -28 5 -8 37 19 44 24 31 24 -5 -1 -21 -8
-36 -16z"/>
<path d="M1428 4963 c6 -2 18 -2 25 0 6 3 1 5 -13 5 -14 0 -19 -2 -12 -5z"/>
<path d="M4010 4924 c1 -24 18 -34 48 -28 38 8 43 24 8 24 -13 0 -31 3 -40 6
-9 3 -16 2 -16 -2z"/>
<path d="M4010 4738 c1 -7 7 -24 15 -38 14 -24 14 -24 15 -3 0 28 -10 53 -21
53 -5 0 -9 -6 -9 -12z"/>
<path d="M3747 4647 c-74 -41 -147 -105 -198 -172 -58 -77 -108 -191 -452
-1033 l-54 -133 -23 63 c-12 35 -25 66 -29 71 -4 4 -15 -28 -26 -70 -10 -43
-20 -84 -23 -91 -2 -7 -1 -12 4 -10 15 5 17 -10 10 -80 -10 -99 -15 -112 -41
-112 -19 0 -25 -9 -38 -62 l-16 -62 36 -60 c50 -81 103 -133 153 -146 71 -19
201 16 296 80 54 36 154 129 154 143 0 5 -50 130 -111 279 -67 165 -109 280
-107 296 2 21 10 28 38 33 19 4 227 13 462 19 488 13 470 15 512 -68 13 -26
74 -162 136 -302 62 -140 117 -260 124 -266 11 -12 600 -119 711 -130 l60 -5
-40 33 c-22 18 -53 45 -69 59 l-29 25 22 175 c12 96 34 242 49 324 15 83 26
179 25 215 -2 88 -64 391 -106 521 -42 125 -94 234 -139 285 -22 25 -64 52
-123 80 -90 42 -315 128 -320 122 -2 -2 -12 -29 -24 -61 -54 -155 -157 -248
-308 -277 -52 -10 -73 -10 -132 3 -176 40 -297 153 -319 297 l-7 50 -58 -33z"/>
<path d="M879 4576 c-245 -100 -435 -388 -534 -806 l-27 -116 -53 -28 c-168
-88 -260 -251 -259 -461 1 -207 90 -400 228 -490 33 -22 47 -38 50 -60 39
-246 52 -317 77 -412 36 -141 88 -278 136 -357 43 -71 116 -152 154 -172 17
-8 30 -25 34 -43 18 -84 106 -130 283 -147 l72 -7 0 -523 0 -524 -22 -4 c-13
-3 -41 -8 -63 -11 -60 -10 -305 -92 -342 -115 -27 -16 -33 -26 -33 -53 0 -75
70 -103 113 -46 23 32 16 64 -20 82 -24 13 -23 14 31 26 54 12 57 12 86 -12
24 -21 45 -26 114 -32 l85 -7 -6 -47 c-4 -37 -1 -51 17 -73 23 -30 75 -39 98
-16 33 33 -6 116 -49 103 -12 -4 -19 -2 -19 7 0 25 23 38 69 38 72 0 220 27
248 45 19 13 36 15 75 10 64 -9 63 12 -3 33 -24 8 -48 21 -52 28 -17 30 -73
47 -164 52 l-93 5 0 521 0 522 78 13 c42 7 120 27 172 44 l95 31 -140 7 c-152
7 -232 19 -340 50 -81 24 -217 87 -258 121 l-29 23 34 48 c18 26 142 195 276
376 133 181 242 332 242 335 0 3 -83 6 -185 6 l-185 0 0 100 0 100 188 0 c179
0 186 1 154 17 -97 48 -252 281 -404 608 -72 155 -182 415 -176 419 13 9 472
215 474 213 1 -1 61 -160 132 -352 72 -193 135 -361 140 -375 8 -22 3 -35 -34
-93 -25 -38 -38 -65 -31 -60 8 4 67 44 131 87 85 58 116 85 116 100 0 12 -7
73 -16 136 l-17 116 23 44 c37 71 39 242 5 332 -6 14 7 21 72 41 l78 23 -4 40
c-1 21 -16 90 -31 152 -43 171 -100 282 -164 321 -31 19 -31 19 -106 -6 -167
-56 -305 -39 -393 49 -26 26 -53 48 -60 48 -7 0 -37 -11 -68 -24z"/>
<path d="M2555 4445 c-33 -19 -57 -35 -52 -35 9 0 117 60 117 66 0 6 -2 5 -65
-31z"/>
<path d="M2627 4241 c-37 -21 -70 -40 -73 -44 -6 -6 15 -177 22 -177 4 0 153
-32 211 -45 21 -5 19 2 -28 136 -27 78 -53 148 -57 155 -5 9 -24 3 -75 -25z"/>
<path d="M6020 3746 c0 -3 -14 -76 -30 -161 -92 -465 -242 -819 -422 -991 -76
-73 -134 -108 -213 -128 -90 -24 -130 -20 -297 31 -138 42 -165 47 -275 51
l-123 4 0 -702 0 -701 54 -127 c30 -70 96 -219 146 -332 95 -211 150 -344 150
-360 0 -5 -37 -29 -82 -54 l-83 -46 168 0 169 0 -6 27 c-3 16 -7 46 -10 68 -3
22 -53 352 -112 733 -58 382 -104 695 -102 696 1 2 66 -7 143 -19 129 -20 144
-24 187 -57 108 -83 245 -140 366 -154 34 -3 64 -10 67 -13 4 -8 -32 -1072
-37 -1076 -2 -1 -39 -10 -83 -19 -107 -21 -340 -99 -365 -121 -13 -12 -20 -31
-20 -55 0 -84 95 -97 123 -17 5 13 -2 28 -22 47 l-29 29 54 12 c50 11 54 11
83 -14 25 -21 45 -26 114 -32 l84 -7 -5 -50 c-4 -41 -1 -53 18 -73 30 -31 84
-34 100 -6 23 45 1 94 -43 94 -19 0 -27 5 -27 17 0 22 19 30 73 30 70 0 217
28 244 46 25 16 31 15 105 -2 76 -17 78 -18 54 -31 -35 -18 -42 -50 -19 -82
43 -57 113 -29 113 46 0 41 -29 62 -138 98 -46 15 -93 37 -106 50 -26 26 -102
45 -178 45 l-51 0 6 162 c4 90 12 330 19 535 l12 372 75 6 c199 16 359 72 400
139 12 18 21 40 21 49 0 8 12 23 28 33 50 33 145 128 201 204 95 128 172 292
226 480 26 94 27 96 71 120 89 46 145 140 170 283 24 130 4 252 -53 339 -24
36 -119 115 -128 106 -2 -2 -11 -67 -20 -143 -19 -168 -54 -338 -101 -497 -19
-65 -34 -122 -34 -127 0 -5 9 -7 20 -4 19 5 19 4 -2 -68 -64 -228 -173 -423
-313 -558 -50 -49 -79 -71 -84 -63 -5 8 -20 -1 -46 -28 -22 -22 -44 -39 -50
-36 -9 3 -204 146 -703 513 l-73 54 74 49 c313 209 512 662 546 1241 4 79 6
146 5 148 -2 2 -4 1 -4 -3z"/>
<path d="M1540 2860 c-36 -27 -96 -65 -134 -85 l-68 -35 152 0 c139 0 151 1
146 18 -2 9 -8 47 -12 85 -3 37 -9 67 -13 66 -3 0 -35 -23 -71 -49z"/>
<path d="M3490 2542 c-307 -3 -322 -4 -270 -18 77 -21 176 -68 226 -109 69
-57 91 -117 98 -264 13 -270 115 -611 311 -1044 l56 -122 -1 -232 -1 -233 80
0 80 0 7 50 c4 27 9 50 13 50 9 0 201 -364 201 -382 0 -3 -34 -26 -75 -50 -41
-23 -75 -46 -75 -50 0 -5 72 -8 160 -8 138 0 160 2 160 15 0 9 -58 249 -130
535 -71 285 -130 527 -130 537 -1 10 27 174 62 366 64 357 66 364 105 339 7
-5 27 -54 43 -110 62 -205 60 -216 57 283 l-2 450 -325 0 c-179 0 -471 -1
-650 -3z"/>
<path d="M3241 1478 c-24 -38 -84 -126 -133 -195 l-90 -127 38 -95 c36 -93
191 -468 233 -564 11 -26 21 -51 22 -55 1 -4 15 -38 32 -77 l29 -69 -48 -43
c-27 -23 -44 -43 -39 -43 15 0 186 48 193 54 3 3 -2 50 -10 103 -9 54 -53 341
-97 638 -45 297 -83 540 -84 541 -1 1 -22 -30 -46 -68z"/>
<path d="M3910 430 l0 -79 -47 -36 -47 -36 100 7 c54 4 101 8 102 10 2 1 13
42 23 91 11 48 22 96 25 106 5 15 -3 17 -75 17 l-81 0 0 -80z"/>
<path d="M2316 482 c-13 -22 -115 -266 -112 -269 2 -2 88 -2 192 -1 l189 3
-75 42 c-125 70 -120 59 -68 139 24 38 47 75 52 82 5 9 -13 12 -83 12 -49 0
-92 -4 -95 -8z"/>
<path d="M1786 209 c-37 -77 -66 -143 -63 -145 2 -2 83 -3 180 -2 l176 3 -79
64 c-44 35 -80 67 -80 70 0 4 29 36 65 71 36 35 65 68 65 72 0 4 -44 8 -98 8
l-99 0 -67 -141z"/>
</g>
</svg>
